HIERARCHY
ROOT pelvis
{
	OFFSET 0.000000 0.000000 0.000000
	CHANNELS 6 Xposition Yposition Zposition Zrotation Xrotation Yrotation
	JOINT lfemur
	{
		OFFSET 11.446000 0.000000 0.000000
		CHANNELS 3 Zrotation Xrotation Yrotation
		JOINT ltibia
		{
			OFFSET 0.000000 -42.030400 0.000000
			CHANNELS 3 Zrotation Xrotation Yrotation
			JOINT lfoot
			{
				OFFSET 0.000000 -39.930200 0.000000
				CHANNELS 3 Zrotation Xrotation Yrotation
				JOINT ltoes
				{
					OFFSET 0.000000 0.000000 11.775800
					CHANNELS 3 Zrotation Xrotation Yrotation
					End Site
					{
					    OFFSET 0.000000 0.000000 5.000000
					}
				}
			}
		}
	}
	JOINT rfemur
	{
		OFFSET -11.446000 0.000000 0.000000
		CHANNELS 3 Zrotation Xrotation Yrotation
		JOINT rtibia
		{
			OFFSET 0.000000 -42.030400 0.000000
			CHANNELS 3 Zrotation Xrotation Yrotation
			JOINT rfoot
			{
				OFFSET 0.000000 -39.930200 0.000000
				CHANNELS 3 Zrotation Xrotation Yrotation
				JOINT rtoes
				{
					OFFSET 0.000000 0.000000 11.775800
					CHANNELS 3 Zrotation Xrotation Yrotation
					End Site
					{
					    OFFSET 0.000000 0.000000 5.000000
					}
				}
			}
		}
	}
	JOINT thorax
	{
		OFFSET 0.000000 11.255600 -5.000000
		CHANNELS 3 Zrotation Xrotation Yrotation
		JOINT head
		{
			OFFSET 0.000000 43.799300 0.000000
			CHANNELS 3 Zrotation Xrotation Yrotation
			End Site
			{
			    OFFSET 0.000000 5.000000 0.000000
			}
		}
		JOINT lclavicle
		{
			OFFSET 0.000000 39.863000 0.000000
			CHANNELS 3 Zrotation Xrotation Yrotation
			JOINT lhumerus
			{
				OFFSET 17.380600 4.958300 0.000000
				CHANNELS 3 Zrotation Xrotation Yrotation
				JOINT lradius
				{
					OFFSET 0.000000 -27.561300 0.000000
					CHANNELS 3 Zrotation Xrotation Yrotation
					JOINT lhand
					{
						OFFSET 0.000000 -26.933000 0.000000
						CHANNELS 3 Zrotation Xrotation Yrotation
						End Site
						{
						    OFFSET 0.000000 -5.000000 0.000000
						}
					}
				}
			}
		}
		JOINT rclavicle
		{
			OFFSET 0.000000 39.863000 0.000000
			CHANNELS 3 Zrotation Xrotation Yrotation
			JOINT rhumerus
			{
				OFFSET -17.380600 4.958300 0.000000
				CHANNELS 3 Zrotation Xrotation Yrotation
				JOINT rradius
				{
					OFFSET 0.000000 -27.561300 0.000000
					CHANNELS 3 Zrotation Xrotation Yrotation
					JOINT rhand
					{
						OFFSET 0.000000 -26.933000 0.000000
						CHANNELS 3 Zrotation Xrotation Yrotation
						End Site
						{
						    OFFSET 0.000000 -5.000000 0.000000
						}
					}
				}
			}
		}
	}
}
MOTION
Frames:	12
Frame Time:	0.0333333
6.39659 109.89 -96.2717 -0.906827 5.34506 1.0801 1.94503 -15.0367 -1.65374 0.108726 26.9777 -0.116699 2.73358 25.1231 -4.19892 -4.32352e-016 -5 -3.99088e-016 -0.202879 -11.5386 0.00663378 -0.0909185 24.7118 0.139852 2.42866 24.1104 -7.37591 -1.91828e-015 -5 7.98176e-016 2.81206 8.42107 -1.11191 2.59072 -19.0805 -7.97451 -6.21202e-017 3.18055e-015 9.93923e-017 19.1747 -8.85224 -21.4466 19.5155 -27.8132 9.06726 -0.0224257 -0.582273 -4.15071 -6.21202e-017 3.18055e-015 9.93923e-017 -15.2192 -3.40042 18.0008 -20.1137 -28.4534 -9.45001 0.0769269 -1.10123 7.86483 
6.28801 105.751 -96.6076 -0.852629 5.68664 1.00233 1.88744 -14.9128 -1.87489 0.0955517 25.5265 -0.114342 1.83287 24.3035 -2.29271 7.60356e-016 -5 -3.99088e-016 -0.0443093 -12.2877 0.778491 -0.0902361 24.1543 0.138547 2.01927 22.8932 -6.79231 6.95656e-017 -5 7.98176e-016 2.34342 7.85621 -0.808885 2.95764 -18.9651 -8.80351 -1.21911e-016 -3.18055e-015 -3.72721e-017 20.4747 -8.86704 -22.5581 20.3631 -28.716 9.61083 -0.00441781 -0.228535 -1.6295 -1.21911e-016 -3.18055e-015 -3.72721e-017 -15.2431 -3.30171 19.3115 -20.4409 -28.798 -9.66121 0.0280315 -0.656907 4.68241 
6.23883 100.566 -96.7872 -1.00982 5.63432 0.822172 1.94898 -14.6813 -2.07979 0.094699 25.4757 -0.105727 1.5891 24.6381 -1.68955 -0 -5 -0 0.253491 -12.5327 0.146507 -0.0846401 23.9418 0.123225 1.36811 23.4549 -5.17106 -4.67135e-016 -5 -7.98176e-016 2.31966 7.869 -0.961035 3.35481 -18.8949 -8.40778 1.61513e-016 0 -4.96962e-017 21.279 -9.35348 -22.6844 21.0923 -29.4729 10.0855 -0.00221272 -0.127348 -0.910038 1.61513e-016 0 -4.96962e-017 -15.6344 -3.39363 20.1282 -21.3611 -29.7476 -10.2623 0.0577032 -0.952249 6.79494 
6.15134 94.2045 -97.1502 -1.26223 5.48254 0.954768 2.11615 -14.9383 -3.05078 0.11656 27.8009 -0.0924821 0.966713 18.2 -0.572214 3.28004e-016 -5 -7.98176e-016 0.670555 -13.6333 -1.0399 -0.107038 26.2694 0.178174 0.221866 19.2216 -3.04025 3.62787e-016 -5 -3.99088e-016 2.17775 7.83048 -1.05719 4.28262 -19.3095 -7.8424 7.45443e-017 0 -0 22.1584 -9.80994 -22.6555 22.2944 -30.6811 10.8817 0.00036339 -0.00336496 -0.0267726 7.45443e-017 0 -0 -15.7052 -3.60282 21.8807 -21.474 -29.8621 -10.3367 0.00862954 -0.347606 2.47701 
6.05434 87.3188 -98.4278 -1.73385 4.76659 1.44319 3.10401 -17.2261 0.945001 0.236058 36.8569 -0.470525 0.838317 -3.77264 -4.37568 -1.29219e-016 -5 7.98176e-016 1.33897 -14.9456 -4.58207 -0.219626 35.6651 0.37282 -0.88155 -3.02488 -1.65424 -1.98785e-016 -5 -0 2.34595 9.73918 -1.37936 4.52106 -19.7018 -8.9845 -1.55301e-017 1.59028e-015 -0 22.8911 -11.6528 -22.5405 23.1372 -31.4996 11.4495 0.00172793 0.0145371 0.100574 -1.55301e-017 1.59028e-015 -0 -15.8783 -5.45444 21.3486 -21.6674 -30.0573 -10.4644 0.0246041 -0.612848 4.3687 
5.84022 82.5423 -99.6162 -0.575398 3.52103 1.76283 2.28929 -20.7596 3.91956 0.414193 45.817 -0.73957 0.744098 -14.9334 -1.13422 -3.62787e-016 -5 3.99088e-016 0.728648 -20.0895 -4.22283 -0.445252 47.2501 0.544872 -2.32587 -15.1295 -7.02195 1.0734e-015 -5 3.1927e-015 0.245525 14.1676 -1.49638 5.27564 -23.0034 -8.83149 1.2424e-017 3.18055e-015 9.93923e-017 23.8235 -16.0704 -19.2811 22.0808 -30.4703 10.7391 -0.0208515 -0.442821 -3.1556 1.2424e-017 3.18055e-015 9.93923e-017 -13.9678 -9.19185 16.7681 -20.9717 -29.3504 -10.0067 0.066021 -1.01897 7.27434 
5.91141 79.6127 -100.399 -1.08167 2.58863 2.23448 2.71629 -24.9846 3.70149 0.733705 55.6756 -1.0419 1.26902 -20.029 1.05653 -1.29219e-016 -5 7.98176e-016 1.34435 -23.68 -4.50565 -0.755209 56.2692 0.739336 -3.86455 -19.9835 -10.7885 -5.16876e-016 -5 3.1927e-015 1.64267 16.8055 -1.86228 3.15309 -26.4736 -8.84975 2.75869e-033 3.18055e-015 -4.96962e-017 22.5551 -16.4621 -18.6762 21.1539 -29.5365 10.1261 -0.0117247 -0.370653 -2.64149 2.75869e-033 3.18055e-015 -4.96962e-017 -12.3689 -10.9259 9.10558 -19.0579 -27.3175 -8.77771 0.121992 -1.38891 9.93773 
6.00883 77.4565 -100.893 -1.44268 0.91048 2.11227 4.08648 -27.3758 4.69636 1.11336 62.6608 -1.43919 0.791079 -22.3459 -0.520861 -3.28004e-016 -5 7.98176e-016 1.46772 -25.5308 -4.98352 -1.08222 62.3774 0.802611 -4.69829 -22.6384 -12.6973 -6.56007e-016 -5 1.59635e-015 2.62172 19.4797 -2.04843 1.84691 -27.2405 -7.9934 -4.34841e-017 3.18055e-015 -4.96962e-017 22.5666 -16.9944 -18.4568 21.154 -29.5365 10.1261 -0.0103187 -0.370638 -2.64151 -4.34841e-017 3.18055e-015 -4.96962e-017 -11.1951 -11.9633 5.12984 -16.8955 -24.8632 -7.44631 0.0899969 -1.19264 8.52077 
6.21051 77.255 -101.047 -1.24089 1.09553 1.48957 4.48438 -27.0916 6.84615 1.09282 62.3223 -1.43744 0.893173 -23.0951 -0.210061 2.6835e-016 -5 7.98176e-016 0.738586 -26.0663 -5.43113 -1.11958 62.8457 1.02069 -4.24697 -22.9798 -10.7684 -1.33184e-015 -5 -1.59635e-015 2.59206 18.4626 -1.48116 1.25579 -25.345 -8.00872 9.93923e-017 0 2.48481e-017 22.4219 -16.5481 -18.476 21.154 -29.5366 10.1261 -0.00973366 -0.37059 -2.64155 9.93923e-017 0 2.48481e-017 -10.5333 -11.2604 4.15221 -14.9264 -22.4794 -6.29254 0.0897229 -1.19029 8.50362 
6.42662 78.1823 -100.938 -0.986547 1.02437 0.914346 4.35048 -25.6011 7.6871 0.927449 59.5695 -1.29963 0.642168 -21.594 -1.10882 1.29219e-016 -5 -7.98176e-016 0.590544 -24.8462 -4.98902 -0.960015 60.3774 0.849616 -4.00814 -21.7363 -10.627 6.56007e-016 -5 -1.59635e-015 2.37262 17.3654 -1.16459 2.03363 -23.7108 -7.16945 -3.60297e-016 -3.18055e-015 -2.48481e-017 22.8013 -16.5914 -18.3566 21.154 -29.5365 10.1261 -0.00972432 -0.370637 -2.64152 -3.60297e-016 -3.18055e-015 -2.48481e-017 -9.9135 -9.64707 4.90256 -13.6244 -20.824 -5.56299 0.191024 -1.73768 12.4673 
6.63832 79.7095 -100.764 -1.00947 0.69179 1.01657 3.77985 -23.2584 6.99673 0.723686 55.3568 -1.09311 0.595361 -19.4435 -1.44218 2.58438e-016 -5 -1.59635e-015 0.910484 -22.2765 -4.25188 -0.738794 55.9937 0.624375 -3.71648 -19.5098 -10.7932 9.14446e-016 -5 -3.1927e-015 2.7268 16.8467 -1.22723 2.38068 -23.1196 -7.43732 1.86361e-016 3.18055e-015 -0 10.5899 -12.521 -10.9398 12.5969 -19.4724 5.00732 -0.499305 -2.78705 -20.2668 1.86361e-016 3.18055e-015 -0 -9.22772 -7.54105 5.68966 -13.6657 -20.8776 -5.58577 0.393584 -2.48153 17.9628 
6.96992 81.5432 -100.651 -0.693192 1.14475 1.19574 2.27459 -20.9014 5.44541 0.521759 49.6972 -0.86865 0.813359 -16.4756 -0.805663 -1.98785e-016 -5 -0 0.881056 -19.8978 -2.95425 -0.535713 50.4493 0.506446 -3.21781 -16.7307 -10.2604 7.95139e-016 -5 -0 2.69746 15.068 -1.53654 2.99885 -22.1324 -7.16318 5.51738e-033 3.18055e-015 -9.93923e-017 9.16866 -9.58756 -12.9125 11.9655 -18.6227 4.67517 -0.623118 -3.10121 -22.6758 5.51738e-033 3.18055e-015 -9.93923e-017 -8.62589 -4.77841 7.48526 -14.2737 -21.6571 -5.92328 0.400159 -2.50223 18.1165 
